<svg width="100%" height="100%" viewBox="0 0 100 100" xmlns="http://www.w3.org/2000/svg">
  <path d="M88,24C89,33 12,24 12,24C17,10 21,12 36,10C48.538,8.328 45,0 62,0C77.133,0 86.811,13.296 88,24Z" style="fill:#ffc682;"/>
  <g transform="matrix(-1.35714,-1.66202e-16,3.10244e-16,-2.53333,115.143,208.933)">
    <path d="M75.87,72.146C75.903,72.366 75.764,72.583 75.485,72.746C75.206,72.908 74.813,73 74.401,73C66.285,73 29.715,73 21.599,73C21.187,73 20.794,72.908 20.515,72.746C20.236,72.583 20.097,72.366 20.13,72.146C20.798,67.759 23.838,47.794 24.458,43.725C24.52,43.316 25.159,43 25.927,43C32.752,43 63.248,43 70.073,43C70.841,43 71.48,43.316 71.542,43.725C72.162,47.794 75.202,67.759 75.87,72.146Z" style="fill:#1d7ed7;"/>
  </g>
  <g transform="matrix(1,0,0,1.25,5.98526e-11,-9.5)">
    <path d="M88.5,26C88.898,26 89.279,26.126 89.561,26.351C89.842,26.577 90,26.882 90,27.2C90,28.71 90,31.29 90,32.8C90,33.118 89.842,33.423 89.561,33.649C89.279,33.874 88.898,34 88.5,34C78.494,34 21.506,34 11.5,34C11.102,34 10.721,33.874 10.439,33.649C10.158,33.423 10,33.118 10,32.8C10,31.29 10,28.71 10,27.2C10,26.882 10.158,26.577 10.439,26.351C10.721,26.126 11.102,26 11.5,26C21.506,26 78.494,26 88.5,26Z" style="fill:#339aef;"/>
  </g>
  <g transform="matrix(1.01163,-0.868557,0.651418,0.758719,-18.0773,44.1921)">
    <path d="M49,32L49,88C49,89.104 48.328,90 47.5,90L44.5,90C43.672,90 43,89.104 43,88L43,32C43,30.896 43.672,30 44.5,30L47.5,30C48.328,30 49,30.896 49,32Z" style="fill:#74c0fc;"/>
  </g>
</svg>
